<svg xmlns="http://www.w3.org/2000/svg" viewBox="0 0 1886.32 1740.94"><defs><style>.cls-1{fill:#4bc800;}</style></defs><title>Risorsa 2</title><g id="Livello_2" data-name="Livello 2"><g id="Livello_1-2" data-name="Livello 1"><path class="cls-1" d="M1364.28,0c-45.87,15.31-61,48.59-59.25,94.83,2,50.14.44,100.41.44,150.62v44.72c-9.53,0-16.65-.07-23.76,0-80.56.86-161.17.32-241.67,3-132.45,4.34-263.3,20.18-388.17,67.85-106.35,40.6-199.5,99.95-264,196.7-92.12,138.14-108.14,293-91,452.31,12.36,115,60.25,219.5,116.7,319.55,20.08,35.6,42.05,70.18,64.16,104.57,9.42,14.64,24.28,20.6,41.48,14.59,17.6-6.15,26.51-19,24.77-38.12-.77-8.54-1.77-17.06-2.74-25.59-12.11-106.67-17.51-213.35,2.39-319.71,19.82-106,64.36-196.59,161.14-254,46.41-27.53,96.53-45.33,148.7-58C1001,717.51,1151.29,726.44,1301,726.27c1.06,0,2.12,1.36,4.45,3v20.7c0,61.45-1.26,122.94.77,184.31.62,18.7,6.13,40.09,16.75,55,21.35,30,73.08,39.49,112.51-.41,138.84-140.53,279.08-279.67,418.72-419.42,43.09-43.12,42.78-79.18-.76-122.73Q1649.55,242.75,1445.29,39.16C1429.81,23.81,1409.9,12.94,1392,0M799.23,1740.24v.66q227,0,454-.18a586.47,586.47,0,0,0,69.09-4.16c140-17,267.41-153.09,271.56-293.86,3.12-105.64,1.15-211.42,1.66-317.14.08-17.06-6.83-29.25-22.35-36.27-15.05-6.8-27.61-2.36-40.17,7.51-17.07,13.41-34.27,27.23-53.27,37.45-20.58,11.06-29.46,25.41-29.17,48.85.9,73.33.33,146.69.32,220,0,115.9-76,192.81-192,192.92q-460.92.43-921.83-.6c-28.29-.11-59-4.67-84.35-16.42-74.45-34.55-107.77-95.81-107.43-178.25,1-245.82.31-491.64.39-737.46,0-67.4-.88-134.83,1-202.18C149,375.84,217.7,301.09,302.49,293.26c46.55-4.3,93.68-2,140.53-3.34,10.32-.29,21.39-1.44,30.71-5.45,52-22.39,103.46-46.12,155.43-68.62,15.54-6.73,22.34-17.48,22-33.7-.44-22.31-15.06-35.88-40.69-35.94q-145.71-.37-291.41.1c-54.49.25-106.46,12.64-152.93,41.35C57.21,255-.15,351.9,0,481.62q.52,461.89.27,923.8c0,18.44,1.59,36.95,3.66,55.29,16.82,148.54,154.25,276.89,303.68,279C471.45,1742,635.35,1740.24,799.23,1740.24Z"/></g></g></svg>